# xmcd
#
# Track frame offsets: 
#        150
#        13512
#        25565
#        37824
#        50420
#        61909
#        74227
#        85861
#        94327
#        106982
#
# Disc length: 1582 seconds
#
# Revision: 0
# Processed by: cddbd v1.5.2PL0 Copyright (c) Steve Scherf et al.
# Submitted via: ExactAudioCopyFreeDBPlugin 1.0
#
DISCID=79062c0a
DTITLE=Various Artist - Bluegrass Breakdown
DYEAR=1900
DGENRE=Bluegrass
TTITLE0=The Stanley Brothers - I'm A Man Of Constant Sorrow
TTITLE1=Lester Flatt and Earl Scruggs - Foggy Mountain Breakdown
TTITLE2=Bill Monroe - Uncle Pen
TTITLE3=The Delmore Brothers - Going Back To The Blue Ridge Mountains
TTITLE4=Doc Watson - Tom Dooley
TTITLE5=The Blue Sky Boys - Are you from Dixie?
TTITLE6=The Armstrong Twins - Cabin Home in Caroline
TTITLE7=Ralph Stanley and The Clinch Mountain Boys - Ain't It Hard?
TTITLE8=Uncle Dave Macon - Cumberland Mountain Deer Race
TTITLE9=The Dixon Brothers - Intoxicated Rat
EXTD=
EXTT0=
EXTT1=
EXTT2=
EXTT3=
EXTT4=
EXTT5=
EXTT6=
EXTT7=
EXTT8=
EXTT9=
PLAYORDER=
